<?xml version="1.0" encoding="utf-8" standalone="no"?>
<!DOCTYPE svg PUBLIC "-//W3C//DTD SVG 1.1//EN"
  "http://www.w3.org/Graphics/SVG/1.1/DTD/svg11.dtd">
<svg xmlns:xlink="http://www.w3.org/1999/xlink" width="460.8pt" height="345.6pt" viewBox="0 0 460.8 345.6" xmlns="http://www.w3.org/2000/svg" version="1.1">
 <metadata>
  <rdf:RDF xmlns:dc="http://purl.org/dc/elements/1.1/" xmlns:cc="http://creativecommons.org/ns#" xmlns:rdf="http://www.w3.org/1999/02/22-rdf-syntax-ns#">
   <cc:Work>
    <dc:type rdf:resource="http://purl.org/dc/dcmitype/StillImage"/>
    <dc:date>2025-06-13T12:29:10.720418</dc:date>
    <dc:format>image/svg+xml</dc:format>
    <dc:creator>
     <cc:Agent>
      <dc:title>Matplotlib v3.10.0, https://matplotlib.org/</dc:title>
     </cc:Agent>
    </dc:creator>
   </cc:Work>
  </rdf:RDF>
 </metadata>
 <defs>
  <style type="text/css">*{stroke-linejoin: round; stroke-linecap: butt}</style>
 </defs>
 <g id="figure_1">
  <g id="patch_1">
   <path d="M 0 345.6 
L 460.8 345.6 
L 460.8 0 
L 0 0 
z
" style="fill: #ffffff"/>
  </g>
  <g id="axes_1">
   <g id="LineCollection_1">
    <path d="M 88.589752 177.13977 
L 221.17174 144.342804 
" clip-path="url(#p568b55e8a4)" style="fill: none; stroke: #808080"/>
    <path d="M 88.589752 177.13977 
L 187.89675 171.856248 
" clip-path="url(#p568b55e8a4)" style="fill: none; stroke: #808080"/>
    <path d="M 88.589752 177.13977 
L 140.344504 219.713417 
" clip-path="url(#p568b55e8a4)" style="fill: none; stroke: #808080"/>
    <path d="M 88.589752 177.13977 
L 163.375108 268.38981 
" clip-path="url(#p568b55e8a4)" style="fill: none; stroke: #808080"/>
    <path d="M 383.730248 190.921003 
L 296.004403 237.479047 
" clip-path="url(#p568b55e8a4)" style="fill: none; stroke: #808080"/>
    <path d="M 383.730248 190.921003 
L 261.679135 177.60114 
" clip-path="url(#p568b55e8a4)" style="fill: none; stroke: #808080"/>
    <path d="M 383.730248 190.921003 
L 339.827142 111.546772 
" clip-path="url(#p568b55e8a4)" style="fill: none; stroke: #808080"/>
    <path d="M 383.730248 190.921003 
L 288.488038 165.131719 
" clip-path="url(#p568b55e8a4)" style="fill: none; stroke: #808080"/>
    <path d="M 163.375108 268.38981 
L 204.366066 213.617268 
" clip-path="url(#p568b55e8a4)" style="fill: none; stroke: #808080"/>
    <path d="M 163.375108 268.38981 
L 234.38596 211.055056 
" clip-path="url(#p568b55e8a4)" style="fill: none; stroke: #808080"/>
    <path d="M 163.375108 268.38981 
L 245.710623 284.491636 
" clip-path="url(#p568b55e8a4)" style="fill: none; stroke: #808080"/>
    <path d="M 163.375108 268.38981 
L 187.89675 171.856248 
" clip-path="url(#p568b55e8a4)" style="fill: none; stroke: #808080"/>
    <path d="M 163.375108 268.38981 
L 140.344504 219.713417 
" clip-path="url(#p568b55e8a4)" style="fill: none; stroke: #808080"/>
    <path d="M 163.375108 268.38981 
L 261.679135 177.60114 
" clip-path="url(#p568b55e8a4)" style="fill: none; stroke: #808080"/>
    <path d="M 163.375108 268.38981 
L 212.330329 254.813124 
" clip-path="url(#p568b55e8a4)" style="fill: none; stroke: #808080"/>
    <path d="M 163.375108 268.38981 
L 233.842581 175.502186 
" clip-path="url(#p568b55e8a4)" style="fill: none; stroke: #808080"/>
    <path d="M 187.89675 171.856248 
L 204.366066 213.617268 
" clip-path="url(#p568b55e8a4)" style="fill: none; stroke: #808080"/>
    <path d="M 187.89675 171.856248 
L 296.004403 237.479047 
" clip-path="url(#p568b55e8a4)" style="fill: none; stroke: #808080"/>
    <path d="M 187.89675 171.856248 
L 221.17174 144.342804 
" clip-path="url(#p568b55e8a4)" style="fill: none; stroke: #808080"/>
    <path d="M 187.89675 171.856248 
L 234.38596 211.055056 
" clip-path="url(#p568b55e8a4)" style="fill: none; stroke: #808080"/>
    <path d="M 187.89675 171.856248 
L 201.047608 88.565282 
" clip-path="url(#p568b55e8a4)" style="fill: none; stroke: #808080"/>
    <path d="M 187.89675 171.856248 
L 245.710623 284.491636 
" clip-path="url(#p568b55e8a4)" style="fill: none; stroke: #808080"/>
    <path d="M 187.89675 171.856248 
L 249.590654 114.41042 
" clip-path="url(#p568b55e8a4)" style="fill: none; stroke: #808080"/>
    <path d="M 187.89675 171.856248 
L 140.344504 219.713417 
" clip-path="url(#p568b55e8a4)" style="fill: none; stroke: #808080"/>
    <path d="M 187.89675 171.856248 
L 261.679135 177.60114 
" clip-path="url(#p568b55e8a4)" style="fill: none; stroke: #808080"/>
    <path d="M 187.89675 171.856248 
L 288.488038 165.131719 
" clip-path="url(#p568b55e8a4)" style="fill: none; stroke: #808080"/>
    <path d="M 187.89675 171.856248 
L 247.205699 64.564364 
" clip-path="url(#p568b55e8a4)" style="fill: none; stroke: #808080"/>
    <path d="M 187.89675 171.856248 
L 212.330329 254.813124 
" clip-path="url(#p568b55e8a4)" style="fill: none; stroke: #808080"/>
    <path d="M 187.89675 171.856248 
L 233.842581 175.502186 
" clip-path="url(#p568b55e8a4)" style="fill: none; stroke: #808080"/>
    <path d="M 212.330329 254.813124 
L 204.366066 213.617268 
" clip-path="url(#p568b55e8a4)" style="fill: none; stroke: #808080"/>
    <path d="M 212.330329 254.813124 
L 221.17174 144.342804 
" clip-path="url(#p568b55e8a4)" style="fill: none; stroke: #808080"/>
    <path d="M 212.330329 254.813124 
L 234.38596 211.055056 
" clip-path="url(#p568b55e8a4)" style="fill: none; stroke: #808080"/>
    <path d="M 212.330329 254.813124 
L 245.710623 284.491636 
" clip-path="url(#p568b55e8a4)" style="fill: none; stroke: #808080"/>
    <path d="M 212.330329 254.813124 
L 249.590654 114.41042 
" clip-path="url(#p568b55e8a4)" style="fill: none; stroke: #808080"/>
    <path d="M 212.330329 254.813124 
L 140.344504 219.713417 
" clip-path="url(#p568b55e8a4)" style="fill: none; stroke: #808080"/>
    <path d="M 212.330329 254.813124 
L 261.679135 177.60114 
" clip-path="url(#p568b55e8a4)" style="fill: none; stroke: #808080"/>
    <path d="M 212.330329 254.813124 
L 288.488038 165.131719 
" clip-path="url(#p568b55e8a4)" style="fill: none; stroke: #808080"/>
    <path d="M 212.330329 254.813124 
L 233.842581 175.502186 
" clip-path="url(#p568b55e8a4)" style="fill: none; stroke: #808080"/>
    <path d="M 201.047608 88.565282 
L 204.366066 213.617268 
" clip-path="url(#p568b55e8a4)" style="fill: none; stroke: #808080"/>
    <path d="M 201.047608 88.565282 
L 234.38596 211.055056 
" clip-path="url(#p568b55e8a4)" style="fill: none; stroke: #808080"/>
    <path d="M 201.047608 88.565282 
L 249.590654 114.41042 
" clip-path="url(#p568b55e8a4)" style="fill: none; stroke: #808080"/>
    <path d="M 201.047608 88.565282 
L 261.679135 177.60114 
" clip-path="url(#p568b55e8a4)" style="fill: none; stroke: #808080"/>
    <path d="M 201.047608 88.565282 
L 288.488038 165.131719 
" clip-path="url(#p568b55e8a4)" style="fill: none; stroke: #808080"/>
    <path d="M 201.047608 88.565282 
L 247.205699 64.564364 
" clip-path="url(#p568b55e8a4)" style="fill: none; stroke: #808080"/>
    <path d="M 201.047608 88.565282 
L 233.842581 175.502186 
" clip-path="url(#p568b55e8a4)" style="fill: none; stroke: #808080"/>
    <path d="M 234.38596 211.055056 
L 204.366066 213.617268 
" clip-path="url(#p568b55e8a4)" style="fill: none; stroke: #808080"/>
    <path d="M 234.38596 211.055056 
L 296.004403 237.479047 
" clip-path="url(#p568b55e8a4)" style="fill: none; stroke: #808080"/>
    <path d="M 234.38596 211.055056 
L 221.17174 144.342804 
" clip-path="url(#p568b55e8a4)" style="fill: none; stroke: #808080"/>
    <path d="M 234.38596 211.055056 
L 245.710623 284.491636 
" clip-path="url(#p568b55e8a4)" style="fill: none; stroke: #808080"/>
    <path d="M 234.38596 211.055056 
L 249.590654 114.41042 
" clip-path="url(#p568b55e8a4)" style="fill: none; stroke: #808080"/>
    <path d="M 234.38596 211.055056 
L 140.344504 219.713417 
" clip-path="url(#p568b55e8a4)" style="fill: none; stroke: #808080"/>
    <path d="M 234.38596 211.055056 
L 261.679135 177.60114 
" clip-path="url(#p568b55e8a4)" style="fill: none; stroke: #808080"/>
    <path d="M 234.38596 211.055056 
L 288.488038 165.131719 
" clip-path="url(#p568b55e8a4)" style="fill: none; stroke: #808080"/>
    <path d="M 234.38596 211.055056 
L 247.205699 64.564364 
" clip-path="url(#p568b55e8a4)" style="fill: none; stroke: #808080"/>
    <path d="M 234.38596 211.055056 
L 233.842581 175.502186 
" clip-path="url(#p568b55e8a4)" style="fill: none; stroke: #808080"/>
    <path d="M 245.710623 284.491636 
L 204.366066 213.617268 
" clip-path="url(#p568b55e8a4)" style="fill: none; stroke: #808080"/>
    <path d="M 245.710623 284.491636 
L 296.004403 237.479047 
" clip-path="url(#p568b55e8a4)" style="fill: none; stroke: #808080"/>
    <path d="M 245.710623 284.491636 
L 221.17174 144.342804 
" clip-path="url(#p568b55e8a4)" style="fill: none; stroke: #808080"/>
    <path d="M 245.710623 284.491636 
L 288.488038 165.131719 
" clip-path="url(#p568b55e8a4)" style="fill: none; stroke: #808080"/>
    <path d="M 245.710623 284.491636 
L 233.842581 175.502186 
" clip-path="url(#p568b55e8a4)" style="fill: none; stroke: #808080"/>
    <path d="M 296.004403 237.479047 
L 204.366066 213.617268 
" clip-path="url(#p568b55e8a4)" style="fill: none; stroke: #808080"/>
    <path d="M 296.004403 237.479047 
L 221.17174 144.342804 
" clip-path="url(#p568b55e8a4)" style="fill: none; stroke: #808080"/>
    <path d="M 296.004403 237.479047 
L 261.679135 177.60114 
" clip-path="url(#p568b55e8a4)" style="fill: none; stroke: #808080"/>
    <path d="M 296.004403 237.479047 
L 288.488038 165.131719 
" clip-path="url(#p568b55e8a4)" style="fill: none; stroke: #808080"/>
    <path d="M 296.004403 237.479047 
L 233.842581 175.502186 
" clip-path="url(#p568b55e8a4)" style="fill: none; stroke: #808080"/>
    <path d="M 204.366066 213.617268 
L 221.17174 144.342804 
" clip-path="url(#p568b55e8a4)" style="fill: none; stroke: #808080"/>
    <path d="M 204.366066 213.617268 
L 249.590654 114.41042 
" clip-path="url(#p568b55e8a4)" style="fill: none; stroke: #808080"/>
    <path d="M 204.366066 213.617268 
L 261.679135 177.60114 
" clip-path="url(#p568b55e8a4)" style="fill: none; stroke: #808080"/>
    <path d="M 204.366066 213.617268 
L 288.488038 165.131719 
" clip-path="url(#p568b55e8a4)" style="fill: none; stroke: #808080"/>
    <path d="M 204.366066 213.617268 
L 233.842581 175.502186 
" clip-path="url(#p568b55e8a4)" style="fill: none; stroke: #808080"/>
    <path d="M 288.488038 165.131719 
L 221.17174 144.342804 
" clip-path="url(#p568b55e8a4)" style="fill: none; stroke: #808080"/>
    <path d="M 288.488038 165.131719 
L 249.590654 114.41042 
" clip-path="url(#p568b55e8a4)" style="fill: none; stroke: #808080"/>
    <path d="M 288.488038 165.131719 
L 261.679135 177.60114 
" clip-path="url(#p568b55e8a4)" style="fill: none; stroke: #808080"/>
    <path d="M 288.488038 165.131719 
L 339.827142 111.546772 
" clip-path="url(#p568b55e8a4)" style="fill: none; stroke: #808080"/>
    <path d="M 288.488038 165.131719 
L 247.205699 64.564364 
" clip-path="url(#p568b55e8a4)" style="fill: none; stroke: #808080"/>
    <path d="M 288.488038 165.131719 
L 233.842581 175.502186 
" clip-path="url(#p568b55e8a4)" style="fill: none; stroke: #808080"/>
    <path d="M 140.344504 219.713417 
L 261.679135 177.60114 
" clip-path="url(#p568b55e8a4)" style="fill: none; stroke: #808080"/>
    <path d="M 140.344504 219.713417 
L 233.842581 175.502186 
" clip-path="url(#p568b55e8a4)" style="fill: none; stroke: #808080"/>
    <path d="M 247.205699 64.564364 
L 221.17174 144.342804 
" clip-path="url(#p568b55e8a4)" style="fill: none; stroke: #808080"/>
    <path d="M 247.205699 64.564364 
L 261.679135 177.60114 
" clip-path="url(#p568b55e8a4)" style="fill: none; stroke: #808080"/>
    <path d="M 247.205699 64.564364 
L 233.842581 175.502186 
" clip-path="url(#p568b55e8a4)" style="fill: none; stroke: #808080"/>
    <path d="M 221.17174 144.342804 
L 249.590654 114.41042 
" clip-path="url(#p568b55e8a4)" style="fill: none; stroke: #808080"/>
    <path d="M 221.17174 144.342804 
L 261.679135 177.60114 
" clip-path="url(#p568b55e8a4)" style="fill: none; stroke: #808080"/>
    <path d="M 221.17174 144.342804 
L 339.827142 111.546772 
" clip-path="url(#p568b55e8a4)" style="fill: none; stroke: #808080"/>
    <path d="M 221.17174 144.342804 
L 233.842581 175.502186 
" clip-path="url(#p568b55e8a4)" style="fill: none; stroke: #808080"/>
    <path d="M 233.842581 175.502186 
L 249.590654 114.41042 
" clip-path="url(#p568b55e8a4)" style="fill: none; stroke: #808080"/>
    <path d="M 233.842581 175.502186 
L 261.679135 177.60114 
" clip-path="url(#p568b55e8a4)" style="fill: none; stroke: #808080"/>
    <path d="M 233.842581 175.502186 
L 339.827142 111.546772 
" clip-path="url(#p568b55e8a4)" style="fill: none; stroke: #808080"/>
    <path d="M 261.679135 177.60114 
L 249.590654 114.41042 
" clip-path="url(#p568b55e8a4)" style="fill: none; stroke: #808080"/>
    <path d="M 261.679135 177.60114 
L 339.827142 111.546772 
" clip-path="url(#p568b55e8a4)" style="fill: none; stroke: #808080"/>
   </g>
   <g id="PathCollection_1">
    <defs>
     <path id="ma9dd8af19c" d="M 0 5 
C 1.326016 5 2.597899 4.473168 3.535534 3.535534 
C 4.473168 2.597899 5 1.326016 5 0 
C 5 -1.326016 4.473168 -2.597899 3.535534 -3.535534 
C 2.597899 -4.473168 1.326016 -5 0 -5 
C -1.326016 -5 -2.597899 -4.473168 -3.535534 -3.535534 
C -4.473168 -2.597899 -5 -1.326016 -5 0 
C -5 1.326016 -4.473168 2.597899 -3.535534 3.535534 
C -2.597899 4.473168 -1.326016 5 0 5 
z
" style="stroke: #17becf"/>
    </defs>
    <g clip-path="url(#p568b55e8a4)">
     <use xlink:href="#ma9dd8af19c" x="88.589752" y="177.13977" style="fill: #17becf; stroke: #17becf"/>
     <use xlink:href="#ma9dd8af19c" x="383.730248" y="190.921003" style="fill: #17becf; stroke: #17becf"/>
     <use xlink:href="#ma9dd8af19c" x="163.375108" y="268.38981" style="fill: #17becf; stroke: #17becf"/>
     <use xlink:href="#ma9dd8af19c" x="187.89675" y="171.856248" style="fill: #17becf; stroke: #17becf"/>
     <use xlink:href="#ma9dd8af19c" x="212.330329" y="254.813124" style="fill: #17becf; stroke: #17becf"/>
     <use xlink:href="#ma9dd8af19c" x="201.047608" y="88.565282" style="fill: #17becf; stroke: #17becf"/>
     <use xlink:href="#ma9dd8af19c" x="234.38596" y="211.055056" style="fill: #17becf; stroke: #17becf"/>
     <use xlink:href="#ma9dd8af19c" x="245.710623" y="284.491636" style="fill: #17becf; stroke: #17becf"/>
     <use xlink:href="#ma9dd8af19c" x="296.004403" y="237.479047" style="fill: #17becf; stroke: #17becf"/>
     <use xlink:href="#ma9dd8af19c" x="204.366066" y="213.617268" style="fill: #17becf; stroke: #17becf"/>
     <use xlink:href="#ma9dd8af19c" x="288.488038" y="165.131719" style="fill: #17becf; stroke: #17becf"/>
     <use xlink:href="#ma9dd8af19c" x="140.344504" y="219.713417" style="fill: #17becf; stroke: #17becf"/>
     <use xlink:href="#ma9dd8af19c" x="247.205699" y="64.564364" style="fill: #17becf; stroke: #17becf"/>
     <use xlink:href="#ma9dd8af19c" x="221.17174" y="144.342804" style="fill: #17becf; stroke: #17becf"/>
     <use xlink:href="#ma9dd8af19c" x="233.842581" y="175.502186" style="fill: #17becf; stroke: #17becf"/>
     <use xlink:href="#ma9dd8af19c" x="261.679135" y="177.60114" style="fill: #17becf; stroke: #17becf"/>
     <use xlink:href="#ma9dd8af19c" x="339.827142" y="111.546772" style="fill: #17becf; stroke: #17becf"/>
     <use xlink:href="#ma9dd8af19c" x="249.590654" y="114.41042" style="fill: #17becf; stroke: #17becf"/>
    </g>
   </g>
   <g id="PathCollection_2">
    <defs>
     <path id="mb525e60267" d="M 0 5 
C 1.326016 5 2.597899 4.473168 3.535534 3.535534 
C 4.473168 2.597899 5 1.326016 5 0 
C 5 -1.326016 4.473168 -2.597899 3.535534 -3.535534 
C 2.597899 -4.473168 1.326016 -5 0 -5 
C -1.326016 -5 -2.597899 -4.473168 -3.535534 -3.535534 
C -4.473168 -2.597899 -5 -1.326016 -5 0 
C -5 1.326016 -4.473168 2.597899 -3.535534 3.535534 
C -2.597899 4.473168 -1.326016 5 0 5 
z
" style="stroke: #000000"/>
    </defs>
    <g clip-path="url(#p568b55e8a4)">
     <use xlink:href="#mb525e60267" x="88.589752" y="177.13977" style="fill: #1f78b4; stroke: #000000"/>
     <use xlink:href="#mb525e60267" x="383.730248" y="190.921003" style="fill: #1f78b4; stroke: #000000"/>
     <use xlink:href="#mb525e60267" x="163.375108" y="268.38981" style="fill: #1f78b4; stroke: #000000"/>
     <use xlink:href="#mb525e60267" x="187.89675" y="171.856248" style="fill: #1f78b4; stroke: #000000"/>
     <use xlink:href="#mb525e60267" x="212.330329" y="254.813124" style="fill: #1f78b4; stroke: #000000"/>
     <use xlink:href="#mb525e60267" x="201.047608" y="88.565282" style="fill: #1f78b4; stroke: #000000"/>
     <use xlink:href="#mb525e60267" x="234.38596" y="211.055056" style="fill: #1f78b4; stroke: #000000"/>
     <use xlink:href="#mb525e60267" x="245.710623" y="284.491636" style="fill: #1f78b4; stroke: #000000"/>
     <use xlink:href="#mb525e60267" x="296.004403" y="237.479047" style="fill: #1f78b4; stroke: #000000"/>
     <use xlink:href="#mb525e60267" x="204.366066" y="213.617268" style="fill: #1f78b4; stroke: #000000"/>
     <use xlink:href="#mb525e60267" x="288.488038" y="165.131719" style="fill: #1f78b4; stroke: #000000"/>
     <use xlink:href="#mb525e60267" x="140.344504" y="219.713417" style="fill: #1f78b4; stroke: #000000"/>
     <use xlink:href="#mb525e60267" x="247.205699" y="64.564364" style="fill: #1f78b4; stroke: #000000"/>
     <use xlink:href="#mb525e60267" x="221.17174" y="144.342804" style="fill: #1f78b4; stroke: #000000"/>
     <use xlink:href="#mb525e60267" x="233.842581" y="175.502186" style="fill: #1f78b4; stroke: #000000"/>
     <use xlink:href="#mb525e60267" x="261.679135" y="177.60114" style="fill: #1f78b4; stroke: #000000"/>
     <use xlink:href="#mb525e60267" x="339.827142" y="111.546772" style="fill: #1f78b4; stroke: #000000"/>
     <use xlink:href="#mb525e60267" x="249.590654" y="114.41042" style="fill: #1f78b4; stroke: #000000"/>
    </g>
   </g>
   <g id="PathCollection_3">
    <defs>
     <path id="mccc1fa1f53" d="M 0 5 
C 1.326016 5 2.597899 4.473168 3.535534 3.535534 
C 4.473168 2.597899 5 1.326016 5 0 
C 5 -1.326016 4.473168 -2.597899 3.535534 -3.535534 
C 2.597899 -4.473168 1.326016 -5 0 -5 
C -1.326016 -5 -2.597899 -4.473168 -3.535534 -3.535534 
C -4.473168 -2.597899 -5 -1.326016 -5 0 
C -5 1.326016 -4.473168 2.597899 -3.535534 3.535534 
C -2.597899 4.473168 -1.326016 5 0 5 
z
" style="stroke: #000000"/>
    </defs>
    <g clip-path="url(#p568b55e8a4)">
     <use xlink:href="#mccc1fa1f53" x="88.589752" y="177.13977" style="stroke: #000000"/>
     <use xlink:href="#mccc1fa1f53" x="383.730248" y="190.921003" style="stroke: #000000"/>
     <use xlink:href="#mccc1fa1f53" x="163.375108" y="268.38981" style="stroke: #000000"/>
     <use xlink:href="#mccc1fa1f53" x="187.89675" y="171.856248" style="stroke: #000000"/>
     <use xlink:href="#mccc1fa1f53" x="212.330329" y="254.813124" style="stroke: #000000"/>
     <use xlink:href="#mccc1fa1f53" x="201.047608" y="88.565282" style="stroke: #000000"/>
     <use xlink:href="#mccc1fa1f53" x="234.38596" y="211.055056" style="stroke: #000000"/>
     <use xlink:href="#mccc1fa1f53" x="245.710623" y="284.491636" style="stroke: #000000"/>
     <use xlink:href="#mccc1fa1f53" x="296.004403" y="237.479047" style="stroke: #000000"/>
     <use xlink:href="#mccc1fa1f53" x="204.366066" y="213.617268" style="stroke: #000000"/>
     <use xlink:href="#mccc1fa1f53" x="288.488038" y="165.131719" style="stroke: #000000"/>
     <use xlink:href="#mccc1fa1f53" x="140.344504" y="219.713417" style="stroke: #000000"/>
     <use xlink:href="#mccc1fa1f53" x="247.205699" y="64.564364" style="stroke: #000000"/>
     <use xlink:href="#mccc1fa1f53" x="221.17174" y="144.342804" style="stroke: #000000"/>
     <use xlink:href="#mccc1fa1f53" x="233.842581" y="175.502186" style="stroke: #000000"/>
     <use xlink:href="#mccc1fa1f53" x="261.679135" y="177.60114" style="stroke: #000000"/>
     <use xlink:href="#mccc1fa1f53" x="339.827142" y="111.546772" style="stroke: #000000"/>
     <use xlink:href="#mccc1fa1f53" x="249.590654" y="114.41042" style="stroke: #000000"/>
    </g>
   </g>
   <g id="text_1">
    <!-- 18 genes -->
    <g transform="translate(208.497187 22.034625) scale(0.12 -0.12)">
     <defs>
      <path id="DejaVuSans-31" d="M 794 531 
L 1825 531 
L 1825 4091 
L 703 3866 
L 703 4441 
L 1819 4666 
L 2450 4666 
L 2450 531 
L 3481 531 
L 3481 0 
L 794 0 
L 794 531 
z
" transform="scale(0.015625)"/>
      <path id="DejaVuSans-38" d="M 2034 2216 
Q 1584 2216 1326 1975 
Q 1069 1734 1069 1313 
Q 1069 891 1326 650 
Q 1584 409 2034 409 
Q 2484 409 2743 651 
Q 3003 894 3003 1313 
Q 3003 1734 2745 1975 
Q 2488 2216 2034 2216 
z
M 1403 2484 
Q 997 2584 770 2862 
Q 544 3141 544 3541 
Q 544 4100 942 4425 
Q 1341 4750 2034 4750 
Q 2731 4750 3128 4425 
Q 3525 4100 3525 3541 
Q 3525 3141 3298 2862 
Q 3072 2584 2669 2484 
Q 3125 2378 3379 2068 
Q 3634 1759 3634 1313 
Q 3634 634 3220 271 
Q 2806 -91 2034 -91 
Q 1263 -91 848 271 
Q 434 634 434 1313 
Q 434 1759 690 2068 
Q 947 2378 1403 2484 
z
M 1172 3481 
Q 1172 3119 1398 2916 
Q 1625 2713 2034 2713 
Q 2441 2713 2670 2916 
Q 2900 3119 2900 3481 
Q 2900 3844 2670 4047 
Q 2441 4250 2034 4250 
Q 1625 4250 1398 4047 
Q 1172 3844 1172 3481 
z
" transform="scale(0.015625)"/>
      <path id="DejaVuSans-20" transform="scale(0.015625)"/>
      <path id="DejaVuSans-67" d="M 2906 1791 
Q 2906 2416 2648 2759 
Q 2391 3103 1925 3103 
Q 1463 3103 1205 2759 
Q 947 2416 947 1791 
Q 947 1169 1205 825 
Q 1463 481 1925 481 
Q 2391 481 2648 825 
Q 2906 1169 2906 1791 
z
M 3481 434 
Q 3481 -459 3084 -895 
Q 2688 -1331 1869 -1331 
Q 1566 -1331 1297 -1286 
Q 1028 -1241 775 -1147 
L 775 -588 
Q 1028 -725 1275 -790 
Q 1522 -856 1778 -856 
Q 2344 -856 2625 -561 
Q 2906 -266 2906 331 
L 2906 616 
Q 2728 306 2450 153 
Q 2172 0 1784 0 
Q 1141 0 747 490 
Q 353 981 353 1791 
Q 353 2603 747 3093 
Q 1141 3584 1784 3584 
Q 2172 3584 2450 3431 
Q 2728 3278 2906 2969 
L 2906 3500 
L 3481 3500 
L 3481 434 
z
" transform="scale(0.015625)"/>
      <path id="DejaVuSans-65" d="M 3597 1894 
L 3597 1613 
L 953 1613 
Q 991 1019 1311 708 
Q 1631 397 2203 397 
Q 2534 397 2845 478 
Q 3156 559 3463 722 
L 3463 178 
Q 3153 47 2828 -22 
Q 2503 -91 2169 -91 
Q 1331 -91 842 396 
Q 353 884 353 1716 
Q 353 2575 817 3079 
Q 1281 3584 2069 3584 
Q 2775 3584 3186 3129 
Q 3597 2675 3597 1894 
z
M 3022 2063 
Q 3016 2534 2758 2815 
Q 2500 3097 2075 3097 
Q 1594 3097 1305 2825 
Q 1016 2553 972 2059 
L 3022 2063 
z
" transform="scale(0.015625)"/>
      <path id="DejaVuSans-6e" d="M 3513 2113 
L 3513 0 
L 2938 0 
L 2938 2094 
Q 2938 2591 2744 2837 
Q 2550 3084 2163 3084 
Q 1697 3084 1428 2787 
Q 1159 2491 1159 1978 
L 1159 0 
L 581 0 
L 581 3500 
L 1159 3500 
L 1159 2956 
Q 1366 3272 1645 3428 
Q 1925 3584 2291 3584 
Q 2894 3584 3203 3211 
Q 3513 2838 3513 2113 
z
" transform="scale(0.015625)"/>
      <path id="DejaVuSans-73" d="M 2834 3397 
L 2834 2853 
Q 2591 2978 2328 3040 
Q 2066 3103 1784 3103 
Q 1356 3103 1142 2972 
Q 928 2841 928 2578 
Q 928 2378 1081 2264 
Q 1234 2150 1697 2047 
L 1894 2003 
Q 2506 1872 2764 1633 
Q 3022 1394 3022 966 
Q 3022 478 2636 193 
Q 2250 -91 1575 -91 
Q 1294 -91 989 -36 
Q 684 19 347 128 
L 347 722 
Q 666 556 975 473 
Q 1284 391 1588 391 
Q 1994 391 2212 530 
Q 2431 669 2431 922 
Q 2431 1156 2273 1281 
Q 2116 1406 1581 1522 
L 1381 1569 
Q 847 1681 609 1914 
Q 372 2147 372 2553 
Q 372 3047 722 3315 
Q 1072 3584 1716 3584 
Q 2034 3584 2315 3537 
Q 2597 3491 2834 3397 
z
" transform="scale(0.015625)"/>
     </defs>
     <use xlink:href="#DejaVuSans-31"/>
     <use xlink:href="#DejaVuSans-38" transform="translate(63.623047 0)"/>
     <use xlink:href="#DejaVuSans-20" transform="translate(127.246094 0)"/>
     <use xlink:href="#DejaVuSans-67" transform="translate(159.033203 0)"/>
     <use xlink:href="#DejaVuSans-65" transform="translate(222.509766 0)"/>
     <use xlink:href="#DejaVuSans-6e" transform="translate(284.033203 0)"/>
     <use xlink:href="#DejaVuSans-65" transform="translate(347.412109 0)"/>
     <use xlink:href="#DejaVuSans-73" transform="translate(408.935547 0)"/>
    </g>
    <!--  Known: 0 Unknown:18 -->
    <g transform="translate(166.975313 35.472) scale(0.12 -0.12)">
     <defs>
      <path id="DejaVuSans-4b" d="M 628 4666 
L 1259 4666 
L 1259 2694 
L 3353 4666 
L 4166 4666 
L 1850 2491 
L 4331 0 
L 3500 0 
L 1259 2247 
L 1259 0 
L 628 0 
L 628 4666 
z
" transform="scale(0.015625)"/>
      <path id="DejaVuSans-6f" d="M 1959 3097 
Q 1497 3097 1228 2736 
Q 959 2375 959 1747 
Q 959 1119 1226 758 
Q 1494 397 1959 397 
Q 2419 397 2687 759 
Q 2956 1122 2956 1747 
Q 2956 2369 2687 2733 
Q 2419 3097 1959 3097 
z
M 1959 3584 
Q 2709 3584 3137 3096 
Q 3566 2609 3566 1747 
Q 3566 888 3137 398 
Q 2709 -91 1959 -91 
Q 1206 -91 779 398 
Q 353 888 353 1747 
Q 353 2609 779 3096 
Q 1206 3584 1959 3584 
z
" transform="scale(0.015625)"/>
      <path id="DejaVuSans-77" d="M 269 3500 
L 844 3500 
L 1563 769 
L 2278 3500 
L 2956 3500 
L 3675 769 
L 4391 3500 
L 4966 3500 
L 4050 0 
L 3372 0 
L 2619 2869 
L 1863 0 
L 1184 0 
L 269 3500 
z
" transform="scale(0.015625)"/>
      <path id="DejaVuSans-3a" d="M 750 794 
L 1409 794 
L 1409 0 
L 750 0 
L 750 794 
z
M 750 3309 
L 1409 3309 
L 1409 2516 
L 750 2516 
L 750 3309 
z
" transform="scale(0.015625)"/>
      <path id="DejaVuSans-30" d="M 2034 4250 
Q 1547 4250 1301 3770 
Q 1056 3291 1056 2328 
Q 1056 1369 1301 889 
Q 1547 409 2034 409 
Q 2525 409 2770 889 
Q 3016 1369 3016 2328 
Q 3016 3291 2770 3770 
Q 2525 4250 2034 4250 
z
M 2034 4750 
Q 2819 4750 3233 4129 
Q 3647 3509 3647 2328 
Q 3647 1150 3233 529 
Q 2819 -91 2034 -91 
Q 1250 -91 836 529 
Q 422 1150 422 2328 
Q 422 3509 836 4129 
Q 1250 4750 2034 4750 
z
" transform="scale(0.015625)"/>
      <path id="DejaVuSans-55" d="M 556 4666 
L 1191 4666 
L 1191 1831 
Q 1191 1081 1462 751 
Q 1734 422 2344 422 
Q 2950 422 3222 751 
Q 3494 1081 3494 1831 
L 3494 4666 
L 4128 4666 
L 4128 1753 
Q 4128 841 3676 375 
Q 3225 -91 2344 -91 
Q 1459 -91 1007 375 
Q 556 841 556 1753 
L 556 4666 
z
" transform="scale(0.015625)"/>
      <path id="DejaVuSans-6b" d="M 581 4863 
L 1159 4863 
L 1159 1991 
L 2875 3500 
L 3609 3500 
L 1753 1863 
L 3688 0 
L 2938 0 
L 1159 1709 
L 1159 0 
L 581 0 
L 581 4863 
z
" transform="scale(0.015625)"/>
     </defs>
     <use xlink:href="#DejaVuSans-20"/>
     <use xlink:href="#DejaVuSans-4b" transform="translate(31.787109 0)"/>
     <use xlink:href="#DejaVuSans-6e" transform="translate(97.363281 0)"/>
     <use xlink:href="#DejaVuSans-6f" transform="translate(160.742188 0)"/>
     <use xlink:href="#DejaVuSans-77" transform="translate(221.923828 0)"/>
     <use xlink:href="#DejaVuSans-6e" transform="translate(303.710938 0)"/>
     <use xlink:href="#DejaVuSans-3a" transform="translate(367.089844 0)"/>
     <use xlink:href="#DejaVuSans-20" transform="translate(400.78125 0)"/>
     <use xlink:href="#DejaVuSans-30" transform="translate(432.568359 0)"/>
     <use xlink:href="#DejaVuSans-20" transform="translate(496.191406 0)"/>
     <use xlink:href="#DejaVuSans-55" transform="translate(527.978516 0)"/>
     <use xlink:href="#DejaVuSans-6e" transform="translate(601.171875 0)"/>
     <use xlink:href="#DejaVuSans-6b" transform="translate(664.550781 0)"/>
     <use xlink:href="#DejaVuSans-6e" transform="translate(722.460938 0)"/>
     <use xlink:href="#DejaVuSans-6f" transform="translate(785.839844 0)"/>
     <use xlink:href="#DejaVuSans-77" transform="translate(847.021484 0)"/>
     <use xlink:href="#DejaVuSans-6e" transform="translate(928.808594 0)"/>
     <use xlink:href="#DejaVuSans-3a" transform="translate(992.1875 0)"/>
     <use xlink:href="#DejaVuSans-31" transform="translate(1025.878906 0)"/>
     <use xlink:href="#DejaVuSans-38" transform="translate(1089.501953 0)"/>
    </g>
   </g>
  </g>
 </g>
 <defs>
  <clipPath id="p568b55e8a4">
   <rect x="57.6" y="41.472" width="357.12" height="266.112"/>
  </clipPath>
 </defs>
</svg>
